# File created by Blade
# Date/Time:  Wed Jan 21 18:40:08 2015
# Frame Rate: 120.000 fps
#------------------------------------------------------
:FULLY-SPECIFIED
:DEGREES
3593
root -3.268607 17.067053 -12.332566 80.660595 -27.677459 7.672867
RightUpLeg -177.001823 -12.981896 28.084595
RightLeg 103.379118 -0.000000 -0.000000
RightFoot -7.947484 31.310396 24.408989
RightToeBase 27.810423 -0.000000 -0.000000
LeftUpLeg -106.998523 51.941486 -51.323840
LeftLeg -4.118357 -0.000000 0.000000
LeftFoot 11.545622 -7.704949 -36.074037
LeftToeBase 9.493607 -0.000000 -0.000000
Spine -23.052864 -12.760565 4.673196
RightShoulder -18.734968 12.603422 -40.141099
RightArm -10.851368 -9.756408 59.748697
RightForeArm -8.795063 -0.000000 41.464553
RightHand 6.838571 -0.000000 -20.294706
RightHandThumb1 -24.326973 -0.000000 -32.862282
LeftShoulder 1.628302 -7.103671 28.974666
LeftArm 56.377700 36.349615 -57.038362
LeftForeArm 24.895477 -0.000000 59.479087
LeftHand -16.124586 -0.000000 6.412145
LeftHandThumb1 -26.253704 0.000000 33.147579
Head -42.512583 25.673192 -6.638694
3594
root -3.278302 17.069575 -12.334009 80.533986 -27.501085 7.702093
RightUpLeg -176.907272 -13.130832 28.161297
RightLeg 103.450707 -0.000000 -0.000000
RightFoot -8.049827 31.260915 24.367265
RightToeBase 27.748132 -0.000000 -0.000000
LeftUpLeg -106.869219 51.982621 -51.006962
LeftLeg -4.037838 -0.000000 0.000000
LeftFoot 11.509041 -7.736233 -35.907465
LeftToeBase 9.564452 -0.000000 -0.000000
Spine -23.205436 -12.483825 4.558282
RightShoulder -18.624846 12.928025 -40.072244
RightArm -10.745343 -8.959428 59.881152
RightForeArm -9.805939 -0.000000 44.285868
RightHand 6.673575 -0.000000 -19.221188
RightHandThumb1 -24.326973 -0.000000 -32.862282
LeftShoulder 1.676037 -7.018309 28.780491
LeftArm 55.727491 36.359351 -57.232742
LeftForeArm 25.113237 -0.000000 59.374974
LeftHand -16.237497 -0.000000 6.148015
LeftHandThumb1 -26.253704 0.000000 33.147579
Head -42.250880 25.559229 -6.609916
3595
root -3.283675 17.074517 -12.331823 80.404602 -27.419804 7.764889
RightUpLeg -176.818683 -13.275960 28.156946
RightLeg 103.478397 -0.000000 -0.000000
RightFoot -8.140826 31.223680 24.388154
RightToeBase 27.715152 -0.000000 -0.000000
LeftUpLeg -106.768511 51.981736 -50.883385
LeftLeg -4.007109 -0.000000 0.000000
LeftFoot 11.536053 -7.823336 -35.718238
LeftToeBase 9.486440 -0.000000 -0.000000
Spine -23.347717 -12.245038 4.377997
RightShoulder -18.553984 13.256368 -40.058391
RightArm -10.556722 -8.000352 60.050843
RightForeArm -10.032237 -0.000000 47.085826
RightHand 7.219062 0.000000 -17.042257
RightHandThumb1 -24.326973 -0.000000 -32.862282
LeftShoulder 1.789062 -7.661195 28.674990
LeftArm 53.959428 36.694048 -58.275585
LeftForeArm 25.134176 -0.000000 59.351440
LeftHand -15.983680 -0.000000 6.263145
LeftHandThumb1 -26.253704 0.000000 33.147579
Head -42.104369 25.465407 -6.691213
3596
root -3.290163 17.078201 -12.329028 80.271178 -27.305935 7.837929
RightUpLeg -176.750025 -13.416919 28.204327
RightLeg 103.526118 -0.000000 -0.000000
RightFoot -8.298410 31.159088 24.225776
RightToeBase 27.646182 -0.000000 -0.000000
LeftUpLeg -106.606431 51.981814 -50.661773
LeftLeg -3.980003 -0.000000 0.000000
LeftFoot 11.535917 -7.878239 -35.558748
LeftToeBase 9.507870 -0.000000 -0.000000
Spine -23.505346 -12.030364 4.231468
RightShoulder -18.444607 13.607971 -40.021887
RightArm -10.425771 -7.557020 60.264819
RightForeArm -10.768881 0.000000 49.945725
RightHand 6.921761 -0.000000 -15.805357
RightHandThumb1 -24.326973 -0.000000 -32.862282
LeftShoulder 1.778176 -7.610584 28.462250
LeftArm 53.208348 36.723057 -58.542575
LeftForeArm 25.087246 0.000000 59.217590
LeftHand -15.850170 -0.000000 6.342389
LeftHandThumb1 -26.253704 0.000000 33.147579
Head -41.947397 25.400110 -6.779795
3597
root -3.297031 17.081267 -12.323432 80.123129 -27.201010 7.911347
RightUpLeg -176.675358 -13.566563 28.252071
RightLeg 103.583035 -0.000000 -0.000000
RightFoot -8.410515 31.131770 24.117751
RightToeBase 27.561954 -0.000000 -0.000000
LeftUpLeg -106.401322 51.996171 -50.429096
LeftLeg -3.992928 -0.000000 0.000000
LeftFoot 11.544637 -7.906157 -35.334381
LeftToeBase 9.459089 -0.000000 -0.000000
Spine -23.666192 -11.888705 4.135117
RightShoulder -18.247288 13.875696 -39.971505
RightArm -10.209228 -7.096866 60.571394
RightForeArm -12.206434 -0.000000 52.865430
RightHand 6.376077 -0.000000 -15.431631
RightHandThumb1 -24.326973 -0.000000 -32.862282
LeftShoulder 1.698207 -7.327537 28.176251
LeftArm 52.620807 36.642775 -58.675818
LeftForeArm 25.060080 0.000000 59.090531
LeftHand -16.267516 -0.000000 6.289150
LeftHandThumb1 -26.253704 0.000000 33.147579
Head -41.796117 25.375395 -6.962429
3598
root -3.298737 17.085033 -12.319359 79.992452 -27.155326 8.003664
RightUpLeg -176.630866 -13.694224 28.260092
RightLeg 103.612786 -0.000000 -0.000000
RightFoot -8.500902 31.102155 24.107807
RightToeBase 27.611746 -0.000000 -0.000000
LeftUpLeg -106.189929 51.989146 -50.252951
LeftLeg -4.011443 -0.000000 0.000000
LeftFoot 11.528532 -7.940223 -35.151637
LeftToeBase 9.489470 -0.000000 -0.000000
Spine -23.838696 -11.664232 3.922278
RightShoulder -18.104080 14.123261 -39.935824
RightArm -10.007148 -6.791706 60.863431
RightForeArm -13.289359 0.000000 55.729698
RightHand 5.965547 -0.000000 -15.458659
RightHandThumb1 -24.326973 -0.000000 -32.862282
LeftShoulder 1.684039 -7.241589 27.947359
LeftArm 52.026320 36.679826 -58.839282
LeftForeArm 25.006222 -0.000000 58.814617
LeftHand -16.361093 0.000000 6.313110
LeftHandThumb1 -26.253704 0.000000 33.147579
Head -41.636961 25.265999 -7.058346
3599
root -3.304823 17.087341 -12.316750 79.880738 -27.098081 8.021340
RightUpLeg -176.519623 -13.788686 28.248529
RightLeg 103.641857 -0.000000 -0.000000
RightFoot -8.604132 31.062367 24.060522
RightToeBase 27.536460 -0.000000 -0.000000
LeftUpLeg -106.002623 52.060233 -50.045901
LeftLeg -4.030105 -0.000000 0.000000
LeftFoot 11.522890 -7.921079 -35.125352
LeftToeBase 9.574557 -0.000000 -0.000000
Spine -23.984061 -11.432536 3.755456
RightShoulder -17.924820 14.286078 -39.884174
RightArm -9.736800 -6.720367 61.241573
RightForeArm -14.856676 -0.000000 58.612087
RightHand 5.051552 -0.000000 -15.799408
RightHandThumb1 -24.326973 -0.000000 -32.862282
LeftShoulder 1.564218 -7.072405 27.755537
LeftArm 51.473761 36.703839 -59.003729
LeftForeArm 24.998506 -0.000000 58.541571
LeftHand -16.448749 -0.000000 6.266950
LeftHandThumb1 -26.253704 0.000000 33.147579
Head -41.523316 25.173941 -7.185693
3600
root -3.308874 17.089444 -12.313176 79.766217 -27.050871 8.053991
RightUpLeg -176.441629 -13.874893 28.265352
RightLeg 103.669415 -0.000000 -0.000000
RightFoot -8.638994 31.065757 24.040076
RightToeBase 27.504743 -0.000000 -0.000000
LeftUpLeg -105.745504 52.129791 -49.781183
LeftLeg -4.063774 -0.000000 0.000000
LeftFoot 11.496257 -7.879060 -35.064601
LeftToeBase 9.583283 -0.000000 -0.000000
Spine -24.136313 -11.210912 3.577255
RightShoulder -17.761777 14.461211 -39.886777
RightArm -9.445021 -6.372537 61.626023
RightForeArm -15.407181 -0.000000 61.453333
RightHand 4.704009 -0.000000 -14.744300
RightHandThumb1 -24.326973 -0.000000 -32.862282
LeftShoulder 1.409589 -6.741905 27.559162
LeftArm 51.149809 36.658870 -59.022473
LeftForeArm 24.960591 0.000000 58.189661
LeftHand -16.424353 -0.000000 6.377953
LeftHandThumb1 -26.253704 0.000000 33.147579
Head -41.416936 25.040765 -7.283459
